<svg width="25" height="21" viewBox="0 0 25 21" fill="none" xmlns="http://www.w3.org/2000/svg">
<path d="M25 1.12467C25 0.499674 24.5833 0.0830078 23.9583 0.0830078H1.04167C0.416667 0.0830078 0 0.499674 0 1.12467V3.20801C0 3.83301 0.416667 4.24967 1.04167 4.24967H23.9583C24.5833 4.24967 25 3.83301 25 3.20801V1.12467Z" fill="#009344"/>
<path d="M25 9.458C25 8.833 24.5833 8.41634 23.9583 8.41634H1.04167C0.416667 8.41634 0 8.833 0 9.458V11.5413C0 12.1663 0.416667 12.583 1.04167 12.583H23.9583C24.5833 12.583 25 12.1663 25 11.5413V9.458Z" fill="#009344"/>
<path d="M25 17.7913C25 17.1663 24.7222 16.7497 24.3056 16.7497H9.02778C8.61112 16.7497 8.33334 17.1663 8.33334 17.7913V19.8747C8.33334 20.4997 8.61112 20.9163 9.02778 20.9163H24.3056C24.7222 20.9163 25 20.4997 25 19.8747V17.7913Z" fill="#009344"/>
</svg>
