<svg width="28" height="28" viewBox="0 0 28 28" fill="none" xmlns="http://www.w3.org/2000/svg">
<path d="M15.4001 14.0001L12.1773 10.4917C11.9029 10.2145 11.9029 9.76506 12.1773 9.48646C12.4517 9.21066 12.8983 9.21066 13.1713 9.48646L17.1011 13.4961C17.3755 13.7747 17.3755 14.2241 17.1011 14.4999L13.1713 18.5095C12.8983 18.7881 12.4517 18.7867 12.1773 18.5095C11.9029 18.2337 11.9029 17.7843 12.1773 17.5057L15.4001 14.0001ZM14.0001 0.560059C21.4229 0.560059 27.4401 6.57726 27.4401 14.0001C27.4401 21.4243 21.4229 27.4401 14.0001 27.4401C6.57726 27.4401 0.560059 21.4243 0.560059 14.0001C0.560059 6.57726 6.57726 0.560059 14.0001 0.560059ZM14.0001 25.6957C20.4583 25.6957 25.6957 20.4597 25.6957 14.0001C25.6957 7.54046 20.4583 2.30446 14.0001 2.30446C7.53906 2.30446 2.30446 7.54046 2.30446 14.0001C2.30306 20.4597 7.53906 25.6957 14.0001 25.6957Z" fill="white" fill-opacity="0.7"/>
</svg>
