<svg width="18" height="16" viewBox="0 0 18 16" fill="none" xmlns="http://www.w3.org/2000/svg">
<path d="M11.9313 12.4768L9.15229 11.0874C8.89018 10.9562 8.72727 10.6927 8.72727 10.3994V9.41585C8.79389 9.3344 8.864 9.2416 8.93644 9.1392C9.29687 8.63011 9.58574 8.06342 9.79578 7.45222C10.2063 7.264 10.4727 6.85818 10.4727 6.4V5.23636C10.4727 4.95622 10.368 4.6848 10.1818 4.47273V2.92538C10.1981 2.76538 10.2621 1.81295 9.57324 1.0272C8.97571 0.3456 8.00611 0 6.69091 0C5.37571 0 4.40611 0.3456 3.80858 1.02691C3.11971 1.81265 3.18371 2.76538 3.2 2.92509V4.47244C3.01382 4.68451 2.90909 4.95593 2.90909 5.23607V6.39971C2.90909 6.75375 3.06996 7.08393 3.34458 7.30415C3.61105 8.35927 4.16873 9.15433 4.36364 9.40945V10.3721C4.36364 10.6537 4.21004 10.912 3.96305 11.047L1.36785 12.4625C0.523927 12.9233 0 13.806 0 14.7671V16H13.3818V14.8239C13.3818 13.8234 12.8259 12.9242 11.9313 12.4768Z" fill="black" fill-opacity="0.4"/>
<path d="M11.9313 12.4768L9.15229 11.0874C8.89018 10.9562 8.72727 10.6927 8.72727 10.3994V9.41585C8.79389 9.3344 8.864 9.2416 8.93644 9.1392C9.29687 8.63011 9.58574 8.06342 9.79578 7.45222C10.2063 7.264 10.4727 6.85818 10.4727 6.4V5.23636C10.4727 4.95622 10.368 4.6848 10.1818 4.47273V2.92538C10.1981 2.76538 10.2621 1.81295 9.57324 1.0272C8.97571 0.3456 8.00611 0 6.69091 0C5.37571 0 4.40611 0.3456 3.80858 1.02691C3.11971 1.81265 3.18371 2.76538 3.2 2.92509V4.47244C3.01382 4.68451 2.90909 4.95593 2.90909 5.23607V6.39971C2.90909 6.75375 3.06996 7.08393 3.34458 7.30415C3.61105 8.35927 4.16873 9.15433 4.36364 9.40945V10.3721C4.36364 10.6537 4.21004 10.912 3.96305 11.047L1.36785 12.4625C0.523927 12.9233 0 13.806 0 14.7671V16H13.3818V14.8239C13.3818 13.8234 12.8259 12.9242 11.9313 12.4768Z" fill="#009344"/>
<path d="M16.1358 12.8075L13.3073 11.5828C13.2404 11.5494 13.1662 11.4676 13.1025 11.3585L15.0007 11.3571C15.0007 11.3571 15.1103 11.3678 15.2805 11.3678C15.5927 11.3678 16.0479 11.3323 16.4442 11.1622C16.6818 11.0598 16.8587 10.8576 16.9297 10.6074C17.0012 10.3549 16.9559 10.0875 16.8058 9.87344C16.2632 9.10137 14.9969 7.08391 14.9573 5.03766C14.9564 5.00246 14.8418 1.5226 11.4053 1.49438C11.06 1.49729 10.7336 1.53977 10.4244 1.61453C10.6548 2.22369 10.6335 2.76886 10.6178 2.94573V4.3226C10.8063 4.59082 10.9087 4.90937 10.9087 5.23635V6.39998C10.9087 6.95475 10.6167 7.4682 10.1503 7.7562C9.93274 8.34442 9.64474 8.89395 9.29245 9.3914C9.24881 9.45337 9.20576 9.51184 9.16357 9.56711V10.3991C9.16357 10.5277 9.23223 10.6391 9.34714 10.6964L12.1262 12.0858C13.1697 12.6077 13.8178 13.6564 13.8178 14.8233V16H17.4545V14.9245C17.4545 14.025 16.9547 13.2169 16.1358 12.8075Z" fill="black" fill-opacity="0.4"/>
<path d="M16.1358 12.8075L13.3073 11.5828C13.2404 11.5494 13.1662 11.4676 13.1025 11.3585L15.0007 11.3571C15.0007 11.3571 15.1103 11.3678 15.2805 11.3678C15.5927 11.3678 16.0479 11.3323 16.4442 11.1622C16.6818 11.0598 16.8587 10.8576 16.9297 10.6074C17.0012 10.3549 16.9559 10.0875 16.8058 9.87344C16.2632 9.10137 14.9969 7.08391 14.9573 5.03766C14.9564 5.00246 14.8418 1.5226 11.4053 1.49438C11.06 1.49729 10.7336 1.53977 10.4244 1.61453C10.6548 2.22369 10.6335 2.76886 10.6178 2.94573V4.3226C10.8063 4.59082 10.9087 4.90937 10.9087 5.23635V6.39998C10.9087 6.95475 10.6167 7.4682 10.1503 7.7562C9.93274 8.34442 9.64474 8.89395 9.29245 9.3914C9.24881 9.45337 9.20576 9.51184 9.16357 9.56711V10.3991C9.16357 10.5277 9.23223 10.6391 9.34714 10.6964L12.1262 12.0858C13.1697 12.6077 13.8178 13.6564 13.8178 14.8233V16H17.4545V14.9245C17.4545 14.025 16.9547 13.2169 16.1358 12.8075Z" fill="#009344"/>
</svg>
